<svg xmlns="http://www.w3.org/2000/svg" fill="#3A3B36" viewBox="0 0 322.82 321.75"><title>swansong-no-text-thick</title><path d="M199.68,23c86.84.78,161.19,68.05,161.23,160.88,0,93.05-74.59,161-161.6,160.86S37.84,276.83,38.09,183.51C38.33,90.45,112.69,23.7,199.68,23ZM144.75,128.17,143,127c2.5-5,5-10,7.5-15,6.57-13.43,7.21-26.73-.42-40.08-4.26-7.46-3.09-11.76,4.41-16.27a133.92,133.92,0,0,1,42-16.5c8.53-1.77,15.14,1.11,19.58,8.47a53.94,53.94,0,0,1,5,10.3c5.69,16.56,7.58,33.82,7.38,51.14-.3,25.51-4.89,50.6-9.53,75.62-1.5,8.08-3.13,16.14-4.79,24.36a5.08,5.08,0,0,0,7.35,5.49c5.17-2.74,10.33-5.48,15.42-8.34C263.41,191.21,285.34,168.65,297,140c5.75-14.12,12.26-26.09,14.06-40.93.59-4.88.53-9.33-1.78-14.57a29.91,29.91,0,0,0-7.91-10.45C260,38.34,198.69,19.2,136.28,49.13a38.46,38.46,0,0,0-12.92,10.45C110,76.23,102.3,95.6,97.27,116.22c-5.19,21.3-2.81,41.17,9.51,59.68,2.42,3.64,4.08,4.08,7.82,1.76,21.25-13.14,43.29-24.83,67-33,10.81-3.72,16.6-9.93,16.76-21.69.2-14.82-.93-29.3-8-42.66-3.55-6.73-7.92-7-11.77-.49C173.73,88,170.14,97,164.72,104.65,158.83,113,151.48,120.39,144.75,128.17Z" transform="translate(-38.09 -22.99)"/></svg>
