<?xml version="1.0" encoding="utf-8"?>
<!-- Generator: Adobe Illustrator 22.1.0, SVG Export Plug-In . SVG Version: 6.00 Build 0)  -->
<svg version="1.1" id="Layer_1" xmlns="http://www.w3.org/2000/svg" xmlns:xlink="http://www.w3.org/1999/xlink" x="0px" y="0px"
	 viewBox="0 0 349.9 327.7" style="enable-background:new 0 0 349.9 327.7;" xml:space="preserve">
<style type="text/css">
	.st0{fill:#FFFFFF;}
</style>
<g>
	<g>
		<path class="st0" d="M349.9,327.7c-116.6,0-233.1,0-349.7,0c0-109,0-218,0-327.2c116.5,0,233.1,0,349.7,0
			C349.9,109.5,349.9,218.6,349.9,327.7z M38.9,137.7c-0.1,74.3,59.8,135.9,136,135.9c76.2,0,136.1-61.1,136.1-135.9
			c0-75-60.3-135.8-136.3-135.7C98.4,2,38.9,63.7,38.9,137.7z M281.9,300.5c0.1-0.5,0.1-1.1,0.2-1.6c1.4,0,2.8-0.1,4.1,0
			c4.4,0.2,7.7-2.4,7.6-6.3c-0.1-2.7-1.5-5.6,2.1-7.2c0.3-0.1,0-1.3,0-2.6c-1.3,0.5-2.7,0.6-3.2,1.3c-1.5,2.4-3.3,2.2-5.7,1.8
			c-4-0.7-7.9,2.6-7.6,6.4c0.2,2.6,0,4.7-0.6,7.3c-0.5,2.2-0.8,4.7-1.5,7.1c-0.3,1,0.5,2.7,1.3,3.7c3.8,4.3,14.1,3.2,17-1.7
			c1.8-3,0.9-5.8-2.6-6.7c-2.4-0.6-5-0.4-7.4-0.6C284.5,301.1,283.2,300.8,281.9,300.5z M197.5,282.8c-1.2,0.3-2.2,0.2-2.6,0.7
			c-2,2.3-4.3,2.6-7.2,2.3c-3.7-0.4-7,2.9-6.8,6.4c0.2,2.5,0.4,4.7-0.6,7.3c-0.7,2-0.5,4.5-1.5,6.8c-0.4,1,0.6,3.2,1.6,4.2
			c3.7,3.7,12.7,3,16-1.1c2.6-3.2,1.6-6.8-2.5-7.7c-2.4-0.5-5-0.2-7.4-0.5c-1.1-0.1-2.1-0.9-3.1-1.3c1.1-0.4,2.2-1.1,3.3-1.1
			c4.6,0.2,8.2-1.8,8.4-5.5c0.1-3-1.2-6.2,2.3-8.3C197.8,284.9,197.6,283.9,197.5,282.8z M62.5,293.3c1.3,3.6,2.1,6.3,3.2,8.9
			c0.3,0.7,1.4,1.6,2.1,1.6c0.7,0,1.9-0.8,2.2-1.5c1.8-5.1,3.5-10.3,5.3-15.8c-1.4,0-2.8-0.3-3,0c-1.6,3.7-3,7.5-4.6,11.7
			c-1-3.1-1.9-5.9-3-8.7c-0.4-1-1.5-1.7-2.3-2.5c-0.8,0.9-1.8,1.6-2.2,2.6c-1,2.6-1.8,5.2-3,8.9c-1-3.4-1.6-5.7-2.5-7.8
			c-0.8-1.9-0.4-5.5-4.9-3.8c1.8,5.3,3.4,10.5,5.3,15.6c0.2,0.7,1.5,1.4,2.3,1.3c0.7-0.1,1.7-0.9,2-1.7
			C60.6,299.5,61.3,296.9,62.5,293.3z M224.8,303.1c0-7.1,0.1-14.5-0.1-22c0-0.7-1.1-1.5-1.8-2.2c-0.5,0.8-1.4,1.6-1.5,2.4
			c-0.2,1.8-0.1,3.6-0.1,4.6c-3.2,0.4-6.1,0.1-8.5,1.1c-3.3,1.4-4.2,4.8-4.2,8.2c0.1,3.5,1.3,6.7,4.6,8.4c1.3,0.7,3.1,0.8,4.7,0.7
			C220,304.1,222,303.5,224.8,303.1z M93.3,297.1C93.3,297.1,93.4,297.1,93.3,297.1c0-1.9,0-3.8-0.2-5.6c-0.4-2.8-1.9-5.3-4.8-5.3
			c-2.8,0-5.6,0.9-8.3,1.8c-0.5,0.2-0.5,2.1-0.7,3.2c1.1-0.2,2.2-0.3,3.3-0.7c0.6-0.2,1-1.4,1.6-1.4c1.4-0.1,3-0.1,4.2,0.5
			c0.6,0.3,1.1,2.6,0.8,2.9c-0.9,0.7-2.3,0.9-3.5,1.1c-1.2,0.2-2.8-0.2-3.6,0.4c-1.6,1.1-3.7,2.8-3.8,4.3c-0.1,1.8,1.5,4.4,3.1,5.2
			c1.7,0.9,4.2,0.2,6.4,0.1c0.8,0,1.8-0.5,2.4-0.2c2.5,1.2,3.2,0.1,3.2-2.1C93.3,299.8,93.3,298.5,93.3,297.1z M245,297.7
			c-1.7,0.9-2.8,1.6-3.9,2c-1.5,0.5-3.3,1.5-4.7,1.1c-1.2-0.3-1.9-2.2-2.9-3.5c0.2-0.4,0.5-0.8,0.7-1.2c2.6,0,5.2-0.1,7.7,0
			c2.8,0.1,3.4-1.3,3.2-3.7c-0.5-5.1-4.8-8-9.6-6.4c-3.6,1.2-5.8,4.7-5.7,9.1c0.1,4.6,2.5,8,6.5,8.9
			C240.3,305.2,243.9,303,245,297.7z M138,295.1c0,5.6,3.5,9.5,8.5,9.4c4.8-0.1,8.2-3.9,8.3-9.3c0.1-5.5-3.5-9.5-8.4-9.6
			C141.5,285.6,138,289.5,138,295.1z M159.3,294.8C159.3,294.8,159.3,294.8,159.3,294.8c0.1,2.2-0.1,4.5,0.2,6.7
			c0.1,0.8,1.2,1.5,1.8,2.3c0.6-0.8,1.7-1.5,1.8-2.3c0.3-2.6,0-5.3,0.3-7.9c0.3-2.5,1.6-4.7,4.4-4.7c3,0.1,3.9,2.3,4,4.9
			c0.1,2.6-0.1,5.3,0.1,7.9c0.1,0.7,1,1.3,1.6,2c0.6-0.6,1.6-1.2,1.7-1.9c0.1-3.5,0.3-7-0.2-10.5c-0.6-4.6-4.9-6.8-9.3-5.2
			c-0.8,0.3-1.9,1.1-2.4,0.9c-4.8-2.6-3.8,1.2-4,3.6C159.2,292.1,159.3,293.5,159.3,294.8z M99,295.1c0,2.1-0.2,4.3,0.1,6.4
			c0.1,0.8,1.1,1.6,1.7,2.3c0.6-0.8,1.6-1.5,1.7-2.3c0.4-2.8,0.3-5.7,0.7-8.5c0.4-2.5,1.8-4.2,4.6-3.9c2.6,0.3,3.4,2.2,3.4,4.6
			c0,2.7,0,5.5,0.2,8.2c0.1,0.7,1.1,1.4,1.6,2c0.7-0.6,1.9-1.2,1.9-1.7c-0.1-4.1,0-8.3-0.8-12.2c-0.7-3.4-4.5-4.9-7.8-3.9
			c-1.7,0.5-3.4,2.6-5.3,0.3c-0.7,0.7-1.8,1.3-1.9,2.1C98.9,290.6,99,292.8,99,295.1z M248.9,297.8c0.9,5.7,5.9,8.2,11,5.9
			c1.6-0.7,3.4-2.9,3.6-4.5c0.1-1.4-1.7-3.3-3.2-4.4c-1.6-1.1-3.8-1.3-5.5-2.2c-0.7-0.3-1.3-1.5-1.3-2.3c0-0.5,1.2-1.4,1.9-1.4
			c1.4,0.1,2.8,0.6,4.2,1c1,0.3,2,0.7,3.3,1.1c-0.9-5-6.7-6.9-11.1-4.2c-3.2,1.9-3.4,5.6-0.3,7.6c1.7,1,3.7,1.4,5.5,2.4
			c1,0.6,1.8,1.7,2.7,2.6c-1.2,0.6-2.4,1.7-3.6,1.8c-1.1,0-2.3-1-3.5-1.6C251.5,299,250.4,298.5,248.9,297.8z M32.6,297.9
			c0.3,4.5,2.7,5.8,5.7,6.4c3.2,0.6,6.3,0.1,8.5-2.7c1.7-2.1,0.9-4.9-1.7-6.3c-1.7-0.9-3.8-1.3-5.5-2.3c-1-0.5-1.6-1.6-2.4-2.4
			c1.1-0.6,2.1-1.6,3.3-1.7c0.9-0.1,2,0.8,3,1.1c1,0.3,2,0.4,3,0.6c-0.3-1.1-0.3-2.6-1-3.1c-2.9-2.3-6.3-2.4-9.5-0.7
			c-3.5,1.7-3.8,5.7-0.4,7.8c1.7,1,3.8,1.4,5.5,2.3c1,0.6,1.7,1.7,2.6,2.6c-1.1,0.6-2.2,1.7-3.3,1.7c-1.3,0-2.6-1.1-3.9-1.7
			C35.2,299,34.1,298.6,32.6,297.9z M300.2,294.7C300.2,294.7,300.2,294.7,300.2,294.7c0,2.1-0.2,4.3,0.1,6.3c0.1,1,1.1,1.8,1.6,2.7
			c0.6-0.9,1.5-1.7,1.7-2.7c0.4-2.7,0.3-5.5,0.7-8.1c0.4-2.4,1.8-4.3,4.5-4c2.8,0.3,3.5,2.4,3.5,4.9c0,2.6-0.1,5.2,0.1,7.8
			c0.1,0.7,1,1.4,1.6,2.1c0.7-0.7,2-1.3,2-2c0-3.8,0-7.8-0.6-11.5c-0.6-3.5-4.4-5.3-7.9-4.3c-1.8,0.5-3.4,2.5-5.4,0.3
			c-0.6,0.7-1.7,1.3-1.8,2.1C300,290.5,300.2,292.6,300.2,294.7z M13.8,292.2C13.8,292.2,13.8,292.2,13.8,292.2c0,3.5,0,7,0,10.5
			c0,5,1.1,5.9,6.1,4.9c0.7-0.1,1.2-0.9,1.8-1.4c-0.5-0.6-1-1.7-1.5-1.7c-2.8-0.1-2.6-2-2.6-4c0-5.4,0-10.8,0-16.1
			c0-2.1-0.1-4,2.8-4.3c0.4,0,0.6-1.6,0.9-2.5c-2-0.1-4-0.5-5.9-0.2c-0.6,0.1-1.5,1.8-1.5,2.9C13.7,284.2,13.8,288.2,13.8,292.2z
			 M134,291.3c-1.6-5.3-6.9-7.1-11.2-4.6c-1.2,0.7-2.6,2.4-2.5,3.7c0,1.4,1.2,3.2,2.4,4.2c1.4,1.1,3.5,1.3,5.1,2.2
			c1,0.6,1.8,1.7,2.7,2.6c-1.2,0.6-2.4,1.7-3.6,1.8c-1.2,0.1-2.4-1-3.6-1.5c-1.1-0.5-2.2-1-3.9-1.8c1.8,5.9,6.7,8.1,11.6,5.8
			c1.5-0.7,3.3-2.8,3.4-4.3c0.1-1.5-1.7-3.4-3.1-4.4c-1.6-1.1-3.7-1.3-5.5-2.2c-0.7-0.4-1.6-1.5-1.5-2.2c0.1-0.7,1.3-1.6,2.1-1.6
			c1.3,0,2.5,0.6,3.8,1C131.2,290.3,132.2,290.7,134,291.3z M338.2,292.5C338.2,292.5,338.2,292.5,338.2,292.5c0-3.5,0-7,0-10.5
			c0-5-0.7-5.6-5.7-4.8c-0.8,0.1-1.4,1-2.1,1.5c0.6,0.5,1.1,1.5,1.7,1.6c2.5,0.2,2.6,1.7,2.6,3.6c-0.1,5.8-0.1,11.5,0,17.3
			c0,1.8-0.2,3.1-2.5,3.3c-0.6,0.1-1.1,1.6-1.6,2.5c1.9,0.2,3.9,0.7,5.8,0.5c0.7-0.1,1.6-1.7,1.7-2.6
			C338.3,300.8,338.2,296.6,338.2,292.5z M272.8,295.3c0-2.2,0.2-4.5-0.1-6.7c-0.1-0.8-1.1-1.5-1.7-2.2c-0.5,0.7-1.5,1.3-1.6,2
			c-0.1,4.5-0.1,9,0,13.5c0,0.7,1,1.4,1.5,2c0.6-0.7,1.7-1.4,1.7-2.2C273,299.5,272.8,297.4,272.8,295.3z M274,280.5
			c-1.4-0.9-2.3-1.8-2.8-1.7c-0.8,0.2-1.5,1.2-2.2,1.9c0.7,0.6,1.3,1.7,2,1.7C271.8,282.5,272.6,281.5,274,280.5z"/>
		<path d="M38.9,137.7C38.9,63.7,98.4,2,174.7,1.9C250.7,1.9,311,62.7,311,137.7c0,74.8-59.9,135.8-136.1,135.9
			C98.7,273.6,38.8,211.9,38.9,137.7z M185.6,169.2c6.8-3.6,14.3-7.5,21.7-11.6c25.7-14.3,45.4-34.1,55.5-62.1
			c4.9-13.5,8.5-27.4,12.8-41.1c1-3.2,0.4-5.3-1.9-7.7c-24.4-25.4-53.9-40-89.2-42.5c-20-1.5-39.4,1.5-58.1,8.6
			c-2.1,0.8-4.2,1.8-5.7,3.3C106,30,96,46.9,89.8,66c-4.1,12.7-7.4,25.4-5.5,39c1.5,10.9,6.4,20.3,12.7,29.3
			c1.3-0.7,2.2-1.3,3.2-1.9c19.8-12.1,40.3-22.6,62.2-30.3c6-2.1,10.3-6.1,11.1-12.5c0.7-5.1,0.8-10.4,0.5-15.6
			c-0.6-9-2.5-17.8-6.6-26c-3.2-6.3-6.5-6.8-10.3-0.9c-4.2,6.7-7.6,14.1-11.3,21.1c-0.6,1.1-1.1,2.3-1.9,3.2
			c-5.1,5.6-10.3,11.2-15.6,16.8c-0.7,0.8-1.8,1.3-2.7,1.9c-0.3-0.2-0.5-0.5-0.8-0.7c0.4-1.1,0.8-2.2,1.3-3.3
			c1.7-3.4,3.3-6.7,5.1-10c6.2-11.9,7.5-23.7,0.4-36c-4.1-7-2-11.8,5.2-15.7c5.1-2.7,10.1-5.5,15.5-7.6c6.6-2.5,13.4-4.8,20.3-6.3
			c7.4-1.6,13.7,1.3,17.7,7.8c2.5,4.1,4.5,8.7,5.7,13.3c6.2,23.3,5.7,47.1,2.6,70.7c-2.6,19.7-6.5,39.1-10.1,58.7
			C188.2,163.9,186.6,166.6,185.6,169.2z"/>
		<path d="M281.9,300.5c1.3,0.3,2.6,0.6,3.9,0.8c2.5,0.3,5,0,7.4,0.6c3.4,0.8,4.4,3.6,2.6,6.7c-3,4.9-13.2,6-17,1.7
			c-0.8-0.9-1.6-2.6-1.3-3.7c0.7-2.4,0.9-4.9,1.5-7.1c0.6-2.5,0.8-4.7,0.6-7.3c-0.3-3.8,3.5-7,7.6-6.4c2.4,0.4,4.2,0.6,5.7-1.8
			c0.4-0.7,1.9-0.8,3.2-1.3c0,1.3,0.2,2.5,0,2.6c-3.6,1.6-2.2,4.5-2.1,7.2c0.1,3.9-3.3,6.6-7.6,6.3c-1.4-0.1-2.8,0-4.1,0
			C282,299.4,282,300,281.9,300.5z M287.5,304.4c-0.4,0-0.8-0.1-1.1,0c-2,0.4-5.2-0.9-5.1,2.6c0.1,3.1,3.1,2.6,5.2,2.7
			c0.4,0,0.8,0.1,1.1-0.1c1.7-1.1,3.5-2.2,5.2-3.3c-1.6-0.6-3.3-1.3-4.9-1.9C287.7,304.3,287.6,304.4,287.5,304.4z M287.5,296.6
			c1-1.4,2.7-2.8,2.7-4.1c0-1.2-1.7-3.2-3-3.6c-2.1-0.7-3.8,0.6-4,3.1C283.1,294.4,284.1,295.8,287.5,296.6z"/>
		<path d="M197.5,282.8c0.1,1.1,0.3,2,0.1,2.2c-3.5,2.1-2.2,5.3-2.3,8.3c-0.2,3.7-3.8,5.7-8.4,5.5c-1.1-0.1-2.2,0.7-3.3,1.1
			c1,0.5,2,1.2,3.1,1.3c2.5,0.3,5,0,7.4,0.5c4,0.9,5.1,4.5,2.5,7.7c-3.3,4.1-12.3,4.8-16,1.1c-1-1-2.1-3.2-1.6-4.2
			c1-2.3,0.7-4.8,1.5-6.8c1-2.6,0.7-4.8,0.6-7.3c-0.2-3.5,3-6.8,6.8-6.4c2.9,0.3,5.2,0.1,7.2-2.3
			C195.3,283.1,196.3,283.1,197.5,282.8z M188.6,304.4c0,0,0,0.1,0,0.1c-1.1,0-2.4-0.3-3.3,0.1c-1.1,0.4-2,1.5-2.9,2.3
			c0.9,0.9,1.7,2.4,2.7,2.5c2.1,0.3,4.5,0.2,6.6-0.4c1.1-0.3,1.8-2,2.6-3.1c-1.1-0.5-2.2-1.1-3.4-1.4
			C190.1,304.2,189.3,304.4,188.6,304.4z M188.9,288.1c-0.6,0-1.1,0.1-1.7,0.1c-1,1.3-2.9,2.9-2.6,3.9c0.4,1.5,2.1,3.3,3.6,3.7
			c2.3,0.6,4-1.3,3.6-3.5C191.6,290.8,189.9,289.5,188.9,288.1z"/>
		<path d="M62.5,293.3c-1.2,3.6-2,6.3-3,8.8c-0.3,0.8-1.3,1.6-2,1.7c-0.7,0.1-2-0.6-2.3-1.3c-1.9-5.1-3.5-10.3-5.3-15.6
			c4.5-1.7,4.1,1.9,4.9,3.8c0.9,2.1,1.4,4.4,2.5,7.8c1.2-3.6,2-6.3,3-8.9c0.4-1,1.4-1.7,2.2-2.6c0.8,0.8,1.9,1.5,2.3,2.5
			c1.1,2.7,1.9,5.6,3,8.7c1.6-4.1,3-7.9,4.6-11.7c0.1-0.3,1.5,0,3,0c-1.8,5.5-3.5,10.7-5.3,15.8c-0.2,0.7-1.4,1.5-2.2,1.5
			c-0.7,0-1.8-0.8-2.1-1.6C64.7,299.6,63.8,296.9,62.5,293.3z"/>
		<path d="M224.8,303.1c-2.8,0.5-4.8,1-6.8,1.1c-1.5,0.1-3.3,0-4.7-0.7c-3.4-1.7-4.6-4.8-4.6-8.4c-0.1-3.4,0.8-6.8,4.2-8.2
			c2.4-1,5.3-0.7,8.5-1.1c0-0.9-0.2-2.8,0.1-4.6c0.1-0.9,1-1.6,1.5-2.4c0.6,0.7,1.7,1.5,1.8,2.2C224.9,288.5,224.8,296,224.8,303.1z
			 M221.4,295.4c0-4.8-2.6-7.4-5.8-6.1c-2.5,1-3.7,4.4-2.7,8.2c0.6,2.4,2.1,4.2,4.8,3.7C220.7,300.4,221.6,298,221.4,295.4z"/>
		<path d="M93.3,297.1c0,1.4,0,2.7,0,4.1c0,2.2-0.7,3.4-3.2,2.1c-0.6-0.3-1.6,0.2-2.4,0.2c-2.2,0.1-4.7,0.8-6.4-0.1
			c-1.6-0.8-3.1-3.4-3.1-5.2c0-1.5,2.2-3.2,3.8-4.3c0.9-0.6,2.4-0.2,3.6-0.4c1.2-0.2,2.6-0.4,3.5-1.1c0.3-0.3-0.2-2.6-0.8-2.9
			c-1.2-0.6-2.8-0.6-4.2-0.5c-0.6,0-1,1.2-1.6,1.4c-1,0.4-2.2,0.5-3.3,0.7c0.2-1.1,0.1-3,0.7-3.2c2.7-0.9,5.5-1.9,8.3-1.8
			c3,0,4.5,2.5,4.8,5.3C93.3,293.3,93.3,295.2,93.3,297.1C93.4,297.1,93.3,297.1,93.3,297.1z M85.6,295.3c-1.5,1.4-2.6,2.5-3.8,3.6
			c1,0.8,2.4,2.5,3.1,2.2c1.6-0.6,2.9-2.1,4.3-3.2C88.2,297.2,87.2,296.5,85.6,295.3z"/>
		<path d="M245,297.7c-1,5.3-4.6,7.5-8.7,6.5c-4-1-6.4-4.3-6.5-8.9c-0.1-4.4,2.1-7.9,5.7-9.1c4.8-1.6,9.1,1.3,9.6,6.4
			c0.2,2.4-0.4,3.8-3.2,3.7c-2.6-0.1-5.1,0-7.7,0c-0.2,0.4-0.5,0.8-0.7,1.2c0.9,1.2,1.7,3.1,2.9,3.5c1.4,0.4,3.1-0.5,4.7-1.1
			C242.2,299.3,243.2,298.6,245,297.7z M241.7,292.8c-0.6-2.9-1.8-4.1-4.1-3.9c-2.2,0.2-3.6,1.3-3.5,3.9
			C236.6,292.8,238.9,292.8,241.7,292.8z"/>
		<path d="M138,295.1c0-5.6,3.4-9.5,8.4-9.5c4.9,0,8.5,4.1,8.4,9.6c-0.1,5.3-3.5,9.2-8.3,9.3C141.5,304.6,138,300.7,138,295.1z
			 M150.9,295.2c0-4-1.4-6.1-4.3-6.2c-3-0.1-4.9,2.3-4.9,6.2c0,3.8,1.7,6,4.6,6C149.3,301.1,150.9,299.1,150.9,295.2z"/>
		<path d="M159.3,294.8c0-1.4-0.1-2.8,0-4.1c0.2-2.4-0.8-6.2,4-3.6c0.5,0.3,1.6-0.6,2.4-0.9c4.4-1.6,8.7,0.6,9.3,5.2
			c0.5,3.4,0.3,7,0.2,10.5c0,0.6-1.1,1.3-1.7,1.9c-0.6-0.7-1.5-1.3-1.6-2c-0.2-2.6,0-5.2-0.1-7.9c-0.1-2.6-1-4.9-4-4.9
			c-2.9-0.1-4.2,2.1-4.4,4.7c-0.3,2.6,0,5.3-0.3,7.9c-0.1,0.8-1.2,1.5-1.8,2.3c-0.6-0.8-1.7-1.4-1.8-2.3
			C159.2,299.3,159.4,297.1,159.3,294.8C159.3,294.8,159.3,294.8,159.3,294.8z"/>
		<path d="M99,295.1c0-2.2-0.2-4.5,0.1-6.7c0.1-0.8,1.2-1.4,1.9-2.1c1.9,2.3,3.6,0.2,5.3-0.3c3.3-0.9,7.1,0.6,7.8,3.9
			c0.8,4,0.7,8.1,0.8,12.2c0,0.6-1.2,1.1-1.9,1.7c-0.6-0.7-1.6-1.3-1.6-2c-0.2-2.7-0.2-5.5-0.2-8.2c0-2.4-0.8-4.3-3.4-4.6
			c-2.7-0.3-4.2,1.5-4.6,3.9c-0.4,2.8-0.3,5.7-0.7,8.5c-0.1,0.8-1.1,1.5-1.7,2.3c-0.6-0.8-1.6-1.5-1.7-2.3
			C98.9,299.3,99,297.2,99,295.1z"/>
		<path d="M248.9,297.8c1.5,0.7,2.6,1.2,3.6,1.7c1.2,0.6,2.4,1.6,3.5,1.6c1.2,0,2.4-1.1,3.6-1.8c-0.9-0.9-1.6-2-2.7-2.6
			c-1.7-1-3.8-1.3-5.5-2.4c-3.2-2-2.9-5.7,0.3-7.6c4.5-2.6,10.2-0.8,11.1,4.2c-1.3-0.4-2.3-0.8-3.3-1.1c-1.4-0.4-2.8-0.9-4.2-1
			c-0.6,0-1.9,0.9-1.9,1.4c0,0.8,0.6,2,1.3,2.3c1.8,0.9,4,1.1,5.5,2.2c1.5,1,3.3,3,3.2,4.4c-0.2,1.6-1.9,3.8-3.6,4.5
			C254.9,306,249.8,303.5,248.9,297.8z"/>
		<path d="M32.6,297.9c1.5,0.7,2.6,1.1,3.7,1.6c1.3,0.6,2.6,1.6,3.9,1.7c1.1,0,2.2-1.1,3.3-1.7c-0.9-0.9-1.6-2.1-2.6-2.6
			c-1.7-1-3.8-1.3-5.5-2.3c-3.3-2.1-3.1-6,0.4-7.8c3.3-1.6,6.6-1.6,9.5,0.7c0.7,0.6,0.7,2.1,1,3.1c-1-0.2-2-0.3-3-0.6
			c-1-0.3-2.1-1.2-3-1.1c-1.1,0.2-2.2,1.1-3.3,1.7c0.8,0.8,1.5,1.9,2.4,2.4c1.8,0.9,3.8,1.3,5.5,2.3c2.6,1.4,3.4,4.2,1.7,6.3
			c-2.1,2.8-5.2,3.3-8.5,2.7C35.3,303.7,32.9,302.4,32.6,297.9z"/>
		<path d="M300.2,294.7c0-2.1-0.2-4.3,0.1-6.3c0.1-0.8,1.2-1.4,1.8-2.1c1.9,2.2,3.6,0.2,5.4-0.3c3.5-1,7.2,0.8,7.9,4.3
			c0.7,3.8,0.6,7.7,0.6,11.5c0,0.7-1.3,1.3-2,2c-0.5-0.7-1.5-1.4-1.6-2.1c-0.2-2.6-0.1-5.2-0.1-7.8c0-2.5-0.8-4.6-3.5-4.9
			c-2.8-0.3-4.2,1.6-4.5,4c-0.4,2.7-0.3,5.5-0.7,8.1c-0.1,0.9-1.1,1.8-1.7,2.7c-0.6-0.9-1.5-1.8-1.6-2.7
			C300,299,300.2,296.8,300.2,294.7C300.2,294.7,300.2,294.7,300.2,294.7z"/>
		<path d="M13.8,292.2c0-4-0.1-8,0.1-12c0-1,0.9-2.8,1.5-2.9c1.9-0.3,3.9,0.1,5.9,0.2c-0.3,0.9-0.5,2.5-0.9,2.5
			c-2.9,0.3-2.8,2.2-2.8,4.3c0.1,5.4,0,10.7,0,16.1c0,1.9-0.2,3.8,2.6,4c0.5,0,1,1.1,1.5,1.7c-0.6,0.5-1.2,1.3-1.8,1.4
			c-4.9,1-6,0.1-6.1-4.9C13.7,299.2,13.8,295.7,13.8,292.2C13.8,292.2,13.8,292.2,13.8,292.2z"/>
		<path d="M134,291.3c-1.7-0.6-2.8-1.1-3.8-1.4c-1.3-0.4-2.5-1-3.8-1c-0.7,0-1.9,0.9-2.1,1.6c-0.1,0.6,0.7,1.8,1.5,2.2
			c1.8,0.9,4,1.1,5.5,2.2c1.4,1,3.2,3,3.1,4.4c-0.1,1.5-1.9,3.5-3.4,4.3c-4.9,2.4-9.9,0.2-11.6-5.8c1.8,0.8,2.9,1.3,3.9,1.8
			c1.2,0.5,2.4,1.6,3.6,1.5c1.2-0.1,2.4-1.1,3.6-1.8c-0.9-0.9-1.6-2-2.7-2.6c-1.6-0.9-3.7-1.1-5.1-2.2c-1.2-0.9-2.4-2.7-2.4-4.2
			c0-1.2,1.3-3,2.5-3.7C127.1,284.2,132.4,286,134,291.3z"/>
		<path d="M338.2,292.5c0,4.1,0.1,8.3-0.1,12.4c0,0.9-1,2.5-1.7,2.6c-1.9,0.2-3.9-0.3-5.8-0.5c0.5-0.9,1-2.4,1.6-2.5
			c2.3-0.3,2.5-1.5,2.5-3.3c-0.1-5.8-0.1-11.5,0-17.3c0-1.9-0.1-3.5-2.6-3.6c-0.6,0-1.1-1-1.7-1.6c0.7-0.5,1.3-1.4,2.1-1.5
			c4.9-0.8,5.6-0.1,5.7,4.8C338.2,285.5,338.2,289,338.2,292.5C338.2,292.5,338.2,292.5,338.2,292.5z"/>
		<path d="M272.8,295.3c0,2.1,0.2,4.3-0.1,6.4c-0.1,0.8-1.1,1.5-1.7,2.2c-0.5-0.7-1.5-1.3-1.5-2c-0.1-4.5-0.1-9,0-13.5
			c0-0.7,1-1.3,1.6-2c0.6,0.7,1.6,1.4,1.7,2.2C273,290.7,272.8,293,272.8,295.3z"/>
		<path d="M274,280.5c-1.4,1-2.2,1.9-3,1.9c-0.6,0-1.3-1.1-2-1.7c0.7-0.7,1.3-1.7,2.2-1.9C271.7,278.7,272.6,279.6,274,280.5z"/>
		<path class="st0" d="M185.6,169.2c1-2.6,2.6-5.3,3.1-8.2c3.5-19.5,7.5-39,10.1-58.7c3.1-23.6,3.6-47.4-2.6-70.7
			c-1.2-4.6-3.2-9.2-5.7-13.3c-3.9-6.5-10.3-9.4-17.7-7.8c-6.9,1.5-13.7,3.8-20.3,6.3c-5.3,2-10.4,4.9-15.5,7.6
			c-7.3,3.9-9.3,8.7-5.2,15.7c7.2,12.3,5.9,24.1-0.4,36c-1.7,3.3-3.4,6.7-5.1,10c-0.5,1.1-0.9,2.2-1.3,3.3c0.3,0.2,0.5,0.5,0.8,0.7
			c0.9-0.6,1.9-1.1,2.7-1.9c5.2-5.6,10.4-11.1,15.6-16.8c0.8-0.9,1.3-2.1,1.9-3.2c3.7-7.1,7.1-14.4,11.3-21.1
			c3.7-5.9,7.1-5.4,10.3,0.9c4.1,8.2,5.9,17,6.6,26c0.4,5.2,0.2,10.5-0.5,15.6c-0.9,6.4-5.2,10.4-11.1,12.5
			c-21.9,7.7-42.4,18.3-62.2,30.3c-0.9,0.6-1.9,1.1-3.2,1.9c-6.3-9-11.2-18.3-12.7-29.3c-1.9-13.5,1.4-26.3,5.5-39
			C96,46.9,106,30,120.6,16.1c1.6-1.5,3.7-2.6,5.7-3.3c18.7-7.1,38-10.1,58.1-8.6c35.3,2.6,64.8,17.1,89.2,42.5
			c2.3,2.4,2.9,4.5,1.9,7.7c-4.3,13.7-7.9,27.6-12.8,41.1c-10.1,28-29.8,47.8-55.5,62.1C199.9,161.7,192.4,165.5,185.6,169.2z"/>
		<path class="st0" d="M287.5,304.4c0.1,0,0.3,0,0.4,0c1.6,0.6,3.3,1.2,4.9,1.9c-1.7,1.1-3.4,2.3-5.2,3.3c-0.3,0.2-0.7,0.1-1.1,0.1
			c-2.2-0.2-5.2,0.3-5.2-2.7c-0.1-3.4,3.1-2.2,5.1-2.6C286.7,304.3,287.1,304.4,287.5,304.4z"/>
		<path class="st0" d="M287.5,296.6c-3.4-0.9-4.4-2.3-4.2-4.6c0.2-2.5,1.9-3.8,4-3.1c1.3,0.4,3,2.3,3,3.6
			C290.2,293.9,288.5,295.3,287.5,296.6z"/>
		<path class="st0" d="M188.6,304.4c0.7,0,1.5-0.2,2.2,0c1.2,0.4,2.3,0.9,3.4,1.4c-0.9,1.1-1.5,2.8-2.6,3.1
			c-2.1,0.6-4.4,0.7-6.6,0.4c-1-0.1-1.8-1.6-2.7-2.5c1-0.8,1.8-1.8,2.9-2.3c1-0.4,2.2-0.1,3.3-0.1
			C188.6,304.5,188.6,304.4,188.6,304.4z"/>
		<path class="st0" d="M188.9,288.1c1,1.4,2.7,2.7,2.9,4.2c0.4,2.2-1.4,4.1-3.6,3.5c-1.5-0.4-3.3-2.2-3.6-3.7
			c-0.3-1,1.7-2.6,2.6-3.9C187.8,288.2,188.3,288.1,188.9,288.1z"/>
		<path class="st0" d="M221.4,295.4c0.2,2.7-0.6,5.1-3.8,5.7c-2.7,0.5-4.1-1.3-4.8-3.7c-1-3.7,0.2-7.2,2.7-8.2
			C218.8,288,221.4,290.6,221.4,295.4z"/>
		<path class="st0" d="M85.6,295.3c1.7,1.2,2.6,2,3.6,2.7c-1.4,1.1-2.7,2.6-4.3,3.2c-0.7,0.2-2-1.4-3.1-2.2
			C82.9,297.8,84.1,296.7,85.6,295.3z"/>
		<path class="st0" d="M241.7,292.8c-2.9,0-5.1,0-7.6,0c-0.1-2.6,1.2-3.7,3.5-3.9C240,288.7,241.2,289.9,241.7,292.8z"/>
		<path class="st0" d="M150.9,295.2c0,3.9-1.6,6-4.6,6c-2.9,0-4.6-2.2-4.6-6c0-3.9,1.9-6.3,4.9-6.2C149.5,289,151,291.2,150.9,295.2
			z"/>
	</g>
</g>
</svg>
